<?xml version="1.0" encoding="UTF-8" standalone="no"?>
<!-- Created with Inkscape (http://www.inkscape.org/) -->

<svg
   width="591mm"
   height="121mm"
   viewBox="0 0 591 121"
   version="1.1"
   id="svg5"
   inkscape:version="1.1.2 (0a00cf5339, 2022-02-04)"
   sodipodi:docname="dataflow.svg"
   xmlns:inkscape="http://www.inkscape.org/namespaces/inkscape"
   xmlns:sodipodi="http://sodipodi.sourceforge.net/DTD/sodipodi-0.dtd"
   xmlns="http://www.w3.org/2000/svg"
   xmlns:svg="http://www.w3.org/2000/svg">
  <sodipodi:namedview
     id="namedview7"
     pagecolor="#ffffff"
     bordercolor="#666666"
     borderopacity="1.0"
     inkscape:pageshadow="2"
     inkscape:pageopacity="0.0"
     inkscape:pagecheckerboard="0"
     inkscape:document-units="mm"
     showgrid="false"
     fit-margin-top="0"
     fit-margin-left="0"
     fit-margin-right="0"
     fit-margin-bottom="0"
     inkscape:zoom="0.85922207"
     inkscape:cx="1167.9169"
     inkscape:cy="283.97781"
     inkscape:window-width="1920"
     inkscape:window-height="1014"
     inkscape:window-x="0"
     inkscape:window-y="0"
     inkscape:window-maximized="1"
     inkscape:current-layer="g36123"
     inkscape:snap-intersection-paths="true" />
  <defs
     id="defs2">
    <marker
       style="overflow:visible"
       id="Arrow1Mend"
       refX="0"
       refY="0"
       orient="auto"
       inkscape:stockid="Arrow1Mend"
       inkscape:isstock="true">
      <path
         transform="matrix(-0.4,0,0,-0.4,-4,0)"
         style="fill:context-stroke;fill-rule:evenodd;stroke:context-stroke;stroke-width:1pt"
         d="M 0,0 5,-5 -12.5,0 5,5 Z"
         id="path19885" />
    </marker>
    <marker
       style="overflow:visible"
       id="Arrow1Mstart"
       refX="0"
       refY="0"
       orient="auto"
       inkscape:stockid="Arrow1Mstart"
       inkscape:isstock="true">
      <path
         transform="matrix(0.4,0,0,0.4,4,0)"
         style="fill:context-stroke;fill-rule:evenodd;stroke:context-stroke;stroke-width:1pt"
         d="M 0,0 5,-5 -12.5,0 5,5 Z"
         id="path19882" />
    </marker>
    <filter
       id="Adobe_OpacityMaskFilter"
       filterUnits="userSpaceOnUse"
       x="162.67999"
       y="18.355"
       width="14.927"
       height="6.6290002">
      <feColorMatrix
         type="matrix"
         values="1 0 0 0 0  0 1 0 0 0  0 0 1 0 0  0 0 0 1 0"
         id="feColorMatrix122" />
    </filter>
    <mask
       maskUnits="userSpaceOnUse"
       id="mask867">
      <path
         id="path869"
         style="fill:#ffffff;stroke:#000000;stroke-width:0.999998"
         d="M 364.11474,56.488261 V 136.48825 H 265.21412 L 353.01536,56.488248 Z"
         sodipodi:nodetypes="ccccc" />
    </mask>
  </defs>
  <g
     inkscape:label="Ebene 1"
     inkscape:groupmode="layer"
     id="layer1"
     transform="translate(-14.350546,-24.551685)">
    <!--!Font Awesome Free 6.5.1 by @fontawesome - https://fontawesome.com License - https://fontawesome.com/license/free Copyright 2024 Fonticons, Inc.-->
    <rect
       style="fill:none;stroke:#000000;stroke-width:1;stroke-miterlimit:4;stroke-dasharray:none"
       id="rect439"
       width="150"
       height="120"
       x="14.850546"
       y="25.051685" />
    <path
       id="rect1438"
       style="fill:none;stroke:#000000"
       d="M 14.850546,40.926701 H 164.85055"
       sodipodi:nodetypes="cc" />
    <g
       id="g212"
       transform="matrix(0.04166373,0,0,0.04166373,17.458208,27.528196)"
       style="stroke-width:6.35045">
      <g
         id="g186"
         style="stroke-width:6.35045">
        <linearGradient
           id="SVGID_1_"
           gradientUnits="userSpaceOnUse"
           x1="199.533"
           y1="201.907"
           x2="39.678699"
           y2="42.0527"
           gradientTransform="matrix(6.3504478,0,0,6.3504478,5172.2651,2146.9588)">
          <stop
             offset="0"
             style="stop-color:#130036"
             id="stop20" />
          <stop
             offset="0.2297"
             style="stop-color:#18023B"
             id="stop22" />
          <stop
             offset="0.5122"
             style="stop-color:#26094A"
             id="stop24" />
          <stop
             offset="0.8211"
             style="stop-color:#3D1563"
             id="stop26" />
          <stop
             offset="1"
             style="stop-color:#4E1D75"
             id="stop28" />
        </linearGradient>
        <path
           class="st1"
           d="M 188.887,35.492 C 174.386,26.02 155.841,22.954 145.606,21.883 134.652,20.738 125.138,20.94 116.77,22.168 c -0.709,-0.009 -1.414,-0.037 -2.127,-0.037 -0.544,0 -1.08,0.023 -1.627,0.029 0.225,-0.275 0.381,-0.445 0.381,-0.445 0,0 -0.44,0.069 -1.304,0.46 -2.717,0.044 -5.421,0.138 -8.085,0.32 3.711,-4.068 6.751,-6.2 6.751,-6.2 0,0 -3.608,0.528 -10.192,6.496 -3.132,0.288 -6.221,0.67 -9.258,1.145 6.918,-9.362 14.155,-13.304 14.155,-13.304 0,0 -8.772,-1.786 -22.507,12.016 -1.149,1.155 -2.215,2.356 -3.246,3.572 C 39.68,35.907 11.03,61.758 11.03,92.139 c 0,5.958 -1.829,12.511 0.143,19.054 -0.788,10.453 0.89,38.975 0.89,38.975 0,0 10.837,58.649 52.51,68.846 0.662,0.158 -8.707,-14.62 -12.851,-32.442 8.069,8.208 17.685,14.699 28.478,15.824 1.325,0.137 -6.165,-8.64 -12.725,-19.234 l 94.698,31.906 c 49.529,-21.274 43.763,-19.357 54.397,-30.875 23.428,-25.36 26.708,-39.75 20.806,-82.235 -3.993,-28.679 -25.16,-57.083 -48.489,-66.466 z"
           id="path31"
           style="fill:url(#SVGID_1_);stroke-width:6.35045" />
        <polygon
           class="st2"
           points="201.939,95.591 22.687,62.276 8.546,142.68 16.387,166.974 172.911,219.015 "
           id="polygon33"
           style="stroke-width:6.35045" />
        <g
           id="g37"
           style="stroke-width:6.35045">
          <path
             class="st3"
             d="m 23.128,65.01 c 0.785,1.689 0.554,2.089 0.065,2.089 -0.22,0 -0.492,-0.081 -0.747,-0.161 -0.255,-0.081 -0.494,-0.161 -0.648,-0.161 -0.433,0 -0.189,0.639 2.263,3.72 3.468,4.406 54.399,81.293 57.182,81.293 0.015,0 0.028,-0.002 0.04,-0.006 23.71,-8.448 124.543,-43.058 124.543,-43.058 L 195.51,93.697 23.128,65.01"
             id="path35"
             style="stroke-width:6.35045" />
        </g>
        <path
           class="st4"
           d="m 24.607,63.121 c 0,0 0.76,3.932 4.281,8.284 3.5,4.392 50.51,75.571 52.869,74.944 30.795,-8.176 142.525,-51.674 142.525,-51.674 z"
           id="path39"
           style="stroke-width:6.35045" />
        <polygon
           class="st3"
           points="168.976,221.012 167.321,217.161 18.568,167.703 19.094,171.178 "
           id="polygon41"
           style="stroke-width:6.35045" />
        <linearGradient
           id="SVGID_2_"
           gradientUnits="userSpaceOnUse"
           x1="10.2428"
           y1="95.311302"
           x2="57.703899"
           y2="95.311302"
           gradientTransform="matrix(6.3504478,0,0,6.3504478,5172.2651,2146.9588)">
          <stop
             offset="0"
             style="stop-color:#3156A8"
             id="stop43" />
          <stop
             offset="0.2474"
             style="stop-color:#3351A4"
             id="stop45" />
          <stop
             offset="0.5365"
             style="stop-color:#3B4397"
             id="stop47" />
          <stop
             offset="0.8453"
             style="stop-color:#472C82"
             id="stop49" />
          <stop
             offset="1"
             style="stop-color:#4E1D75"
             id="stop51" />
        </linearGradient>
        <path
           class="st5"
           d="m 57.704,59.795 c 0,0 -54.122,15.85 -29.288,71.033 0,0 -11.387,-10.426 -18.167,-23.757 C 9.944,106.474 21.55,65.242 21.55,65.242 Z"
           id="path54"
           style="fill:url(#SVGID_2_);stroke-width:6.35045" />
        <radialGradient
           id="SVGID_3_"
           cx="59.0732"
           cy="113.9232"
           r="85.246597"
           gradientTransform="matrix(6.3504478,0,0,9.2081493,5172.2651,1821.4005)"
           gradientUnits="userSpaceOnUse">
          <stop
             offset="0.1654"
             style="stop-color:#14CDDA"
             id="stop56" />
          <stop
             offset="0.5478"
             style="stop-color:#2061BD"
             id="stop58" />
          <stop
             offset="0.6546"
             style="stop-color:#2658AC"
             id="stop60" />
          <stop
             offset="0.864"
             style="stop-color:#373F81"
             id="stop62" />
          <stop
             offset="1"
             style="stop-color:#432D62"
             id="stop64" />
        </radialGradient>
        <path
           class="st6"
           d="m 28.416,130.828 c -4.707,-0.081 -12.269,-3.964 -14.722,-8.665 -3.066,51.098 17.782,80.939 50.88,96.853 C 53.759,217.776 0,189.407 0,121.14 0,63.093 46.06,11.208 118.142,8.831 118.584,12.085 82.406,20.245 81.249,24.082 79.453,30.054 75.325,36.555 71.843,41.766 67.125,48.827 78.4,54.865 70.114,56.767 57.646,59.628 41.016,58.044 28.753,73.986 10.319,97.951 22.62,125.365 28.416,130.828 Z"
           id="path67"
           style="fill:url(#SVGID_3_);stroke-width:6.35045" />
        <g
           id="g80"
           style="stroke-width:6.35045">
          <linearGradient
             id="SVGID_4_"
             gradientUnits="userSpaceOnUse"
             x1="44.5387"
             y1="57.897499"
             x2="191.515"
             y2="57.897499"
             gradientTransform="matrix(6.3504478,0,0,6.3504478,5172.2651,2146.9588)">
            <stop
               offset="0"
               style="stop-color:#2061BD"
               id="stop69" />
            <stop
               offset="0.1846"
               style="stop-color:#2B51AC"
               id="stop71" />
            <stop
               offset="0.6826"
               style="stop-color:#442C84"
               id="stop73" />
            <stop
               offset="0.9409"
               style="stop-color:#4E1D75"
               id="stop75" />
          </linearGradient>
          <path
             class="st7"
             d="M 137.048,10.699 C 90.366,7.117 66.341,25.796 50.918,47.516 c -5.617,7.906 -5.002,15.166 -3.068,23.937 0.831,3.744 1.671,5.538 0.659,9.355 -0.558,2.106 -0.465,4.072 -1.158,5.314 -0.959,1.717 -2.18,3.594 -2.589,6.677 -1.022,7.699 1.703,10.151 3.406,12.741 2.426,-2.409 7.165,-8.079 15.71,-11.466 8.545,-3.387 14.167,-8.477 24.876,-13.941 14.632,-7.463 31.782,3.859 64.3,-6.796 C 163.06,70.058 186.056,35.993 191.515,34.685 176.312,17.873 150.448,11.726 137.048,10.699 Z"
             id="path78"
             style="fill:url(#SVGID_4_);stroke-width:6.35045" />
        </g>
        <path
           class="st8"
           d="m 106.207,0.032 c 0,0 -8.335,4.026 -11.965,11.301 8.381,-4.225 13.246,-6.533 15.546,-6.808 0,0 -2.203,1.067 -4.935,6.87 4.83,-1.547 6.493,-2.522 7.819,-2.537 0,0 -0.385,0.61 -0.737,6.402 -7.417,-2.404 -21.693,0.397 -29.287,5.153 C 80.072,6.678 106.207,0.032 106.207,0.032 Z"
           id="path82"
           style="stroke-width:6.35045" />
        <linearGradient
           id="SVGID_5_"
           gradientUnits="userSpaceOnUse"
           x1="66.173599"
           y1="23.205601"
           x2="167.26421"
           y2="111.0823"
           gradientTransform="matrix(6.3504478,0,0,6.3504478,5172.2651,2146.9588)">
          <stop
             offset="0.0202"
             style="stop-color:#48A8E0"
             id="stop84" />
          <stop
             offset="0.3883"
             style="stop-color:#2061BD"
             id="stop86" />
          <stop
             offset="0.4968"
             style="stop-color:#2B51AC"
             id="stop88" />
          <stop
             offset="0.7892"
             style="stop-color:#442C84"
             id="stop90" />
          <stop
             offset="0.9409"
             style="stop-color:#4E1D75"
             id="stop92" />
        </linearGradient>
        <path
           class="st9"
           d="M 139.379,8.63 C 125.07,6.776 113.109,7.141 102.94,9.1 c 3.198,-3.065 6.898,-4.575 6.898,-4.575 -4.795,0.424 -10.781,3.554 -15.917,6.868 -2.588,0.826 -5.054,1.758 -7.39,2.799 1.43,-1.885 3.094,-3.899 4.72,-5.445 6.039,-5.743 15.006,-8.715 15.006,-8.715 -7.654,-0.562 -33.268,5.995 -48.681,37.213 -2.526,3.077 -4.883,6.235 -7.129,9.398 -5.798,8.164 -5.162,15.658 -3.162,24.715 0.852,3.867 1.009,10.04 0.168,14.029 -0.168,0.799 -2.363,2.863 -2.926,8.428 -0.602,5.905 1.505,8.804 3.582,11.203 C 55.489,94.226 62.77,92.087 62.77,92.087 73.1,87.855 77.4,83.335 88.458,77.694 c 15.108,-7.709 67.939,17.45 101.512,6.448 10.332,-3.384 -3.977,-47.359 1.663,-48.709 C 175.934,18.073 153.139,10.413 139.379,8.63 Z"
           id="path95"
           style="fill:url(#SVGID_5_);stroke-width:6.35045" />
        <linearGradient
           id="SVGID_6_"
           gradientUnits="userSpaceOnUse"
           x1="19.676201"
           y1="337.41391"
           x2="217.8353"
           y2="43.630901"
           gradientTransform="matrix(6.3504478,0,0,6.3504478,5172.2651,2146.9588)">
          <stop
             offset="0.3787"
             style="stop-color:#3156A8"
             id="stop97" />
          <stop
             offset="1"
             style="stop-color:#4E1D75"
             id="stop99" />
        </linearGradient>
        <path
           class="st10"
           d="M 244.176,103.288 C 235.9,60.051 196.08,20.716 164.059,18.536 149.848,17.568 154.212,24.855 145.32,27.63 107,39.589 106.414,46.571 106.414,46.571 c 81.252,3.819 82.484,84.064 60.724,104.366 6.123,-1.428 12.762,-8.914 18.859,-20.666 -0.732,4.931 -1.36,10.98 -2.274,17.729 -2.788,20.595 0.823,63.614 -58.356,92.405 0,0 32.372,-2.646 48.425,-20.717 -6.528,15.012 -24.441,23.121 -24.441,23.121 13.182,-1.928 47.81,-12.146 69.868,-39.732 24.966,-31.225 32.474,-60.519 24.957,-99.789 z"
           id="path102"
           style="fill:url(#SVGID_6_);stroke-width:6.35045" />
        <linearGradient
           id="SVGID_7_"
           gradientUnits="userSpaceOnUse"
           x1="96.745201"
           y1="278.64581"
           x2="206.3175"
           y2="32.542301"
           gradientTransform="matrix(6.3504478,0,0,6.3504478,5172.2651,2146.9588)">
          <stop
             offset="0"
             style="stop-color:#29ABE2"
             id="stop104" />
          <stop
             offset="0.7733"
             style="stop-color:#385AA6"
             id="stop106" />
          <stop
             offset="0.8575"
             style="stop-color:#414293"
             id="stop108" />
          <stop
             offset="1"
             style="stop-color:#4E1D75"
             id="stop110" />
        </linearGradient>
        <path
           class="st11"
           d="m 164.993,182.221 c 0,0 26.396,-7.38 34.903,-21.633 -1.032,16.619 -16.107,33.662 -16.107,33.662 0,0 22.038,-4.46 31.436,-19.968 -1.224,13.994 -18.191,32.907 -18.191,32.907 17.346,-3.113 60.93,-30.645 47.143,-103.901 -8.142,-43.262 -48.096,-82.572 -80.117,-84.752 -14.211,-0.968 -9.847,6.319 -18.739,9.094 -38.32,11.959 -38.906,18.941 -38.906,18.941 81.252,3.819 102.844,46.344 60.724,103.231 6.123,-1.429 8.578,-4.794 13.178,-10.301 -0.002,0 2.084,21.78 -15.324,42.72 z"
           id="path113"
           style="fill:url(#SVGID_7_);stroke-width:6.35045" />
        <linearGradient
           id="SVGID_8_"
           gradientUnits="userSpaceOnUse"
           x1="48.2686"
           y1="92.033699"
           x2="54.241402"
           y2="95.4683"
           gradientTransform="matrix(6.3504478,0,0,6.3504478,5172.2651,2146.9588)">
          <stop
             offset="0"
             style="stop-color:#B0DCD6"
             id="stop115" />
          <stop
             offset="1"
             style="stop-color:#53ACE0"
             id="stop117" />
        </linearGradient>
        <path
           class="st12"
           d="m 60.609,85.567 c 0,0 -4.719,3.301 -8.136,2.46 -4.045,-0.993 -4.73,-4.913 -4.73,-4.913 -0.089,0.803 -0.192,1.578 -0.341,2.273 -0.168,0.799 -2.363,2.863 -2.926,8.428 -0.602,5.905 1.615,9.325 3.692,11.724 7.381,-10.792 14.552,-13.452 14.552,-13.452 -2.809,-0.982 -2.111,-6.52 -2.111,-6.52 z"
           id="path120"
           style="fill:url(#SVGID_8_);stroke-width:6.35045" />
        <defs
           id="defs125">
          <filter
             id="filter279"
             filterUnits="userSpaceOnUse"
             x="162.67999"
             y="18.355"
             width="14.927"
             height="6.6290002">
            <feColorMatrix
               type="matrix"
               values="1 0 0 0 0  0 1 0 0 0  0 0 1 0 0  0 0 0 1 0"
               id="feColorMatrix277" />
          </filter>
        </defs>
        <mask
           maskUnits="userSpaceOnUse"
           x="162.68"
           y="18.355"
           width="14.927"
           height="6.629"
           id="SVGID_9_">
          <g
             class="st13"
             id="g134">
            <radialGradient
               id="SVGID_10_"
               cx="154.384"
               cy="67.998497"
               r="51.967499"
               gradientUnits="userSpaceOnUse">
              <stop
                 offset="0.868"
                 style="stop-color:#FFFFFF"
                 id="stop127" />
              <stop
                 offset="1"
                 style="stop-color:#000000"
                 id="stop129" />
            </radialGradient>
            <rect
               x="91.294998"
               y="-7.2179999"
               class="st14"
               width="100.015"
               height="93.338997"
               id="rect132" />
          </g>
        </mask>
        <g
           class="st15"
           mask="url(#SVGID_9_)"
           id="g152"
           style="stroke-width:6.35045">
          <g
             class="st16"
             id="g150"
             style="stroke-width:6.35045">
            <g
               class="st17"
               id="g148"
               style="stroke-width:6.35045">
              <linearGradient
                 id="SVGID_11_"
                 gradientUnits="userSpaceOnUse"
                 x1="176.2139"
                 y1="23.0851"
                 x2="164.2403"
                 y2="20.555401"
                 gradientTransform="matrix(6.3504478,0,0,6.3504478,5172.2651,2146.9588)">
                <stop
                   offset="0"
                   style="stop-color:#3092B9"
                   id="stop137" />
                <stop
                   offset="0.2199"
                   style="stop-color:#258DB6"
                   id="stop139" />
                <stop
                   offset="0.6564"
                   style="stop-color:#1685B1"
                   id="stop141" />
                <stop
                   offset="1"
                   style="stop-color:#1082AF"
                   id="stop143" />
              </linearGradient>
              <path
                 class="st18"
                 d="m 163.513,18.434 c 1.106,-0.287 5.621,0.204 8.584,1.533 2.964,1.329 8.073,3.679 3.986,4.701 -4.088,1.022 -6.438,-0.613 -8.482,-2.351 -2.044,-1.738 -6.847,-3.168 -4.088,-3.883 z"
                 id="path146"
                 style="fill:url(#SVGID_11_);stroke-width:6.35045" />
            </g>
          </g>
        </g>
        <linearGradient
           id="SVGID_12_"
           gradientUnits="userSpaceOnUse"
           x1="80.783798"
           y1="38.0252"
           x2="90.637001"
           y2="77.544296"
           gradientTransform="matrix(6.3504478,0,0,6.3504478,5172.2651,2146.9588)">
          <stop
             offset="0.0074"
             style="stop-color:#1398D1;stop-opacity:0"
             id="stop154" />
          <stop
             offset="0.2482"
             style="stop-color:#1187C2;stop-opacity:0.6197"
             id="stop156" />
          <stop
             offset="0.6422"
             style="stop-color:#3F6499;stop-opacity:0.71"
             id="stop158" />
          <stop
             offset="1"
             style="stop-color:#2F4282;stop-opacity:0.5"
             id="stop160" />
        </linearGradient>
        <path
           class="st19"
           d="m 61.051,84.921 c 0,0 25.888,-42.662 49.292,-54.175 2.173,-1.093 -32.405,9.191 -46.32,24.55 -8.271,9.129 -3.891,27.002 -2.972,29.625 z"
           id="path163"
           style="fill:url(#SVGID_12_);stroke-width:6.35045" />
        <path
           class="st20"
           d="m 61.051,84.921 c 0.024,-0.015 0.05,-0.03 0.075,-0.045 C 67.82,80.74 79.292,78.358 82.99,70.861 97.227,41.992 110.344,30.746 110.344,30.746 86.939,42.259 61.051,84.921 61.051,84.921 Z"
           id="path165"
           style="stroke-width:6.35045" />
        <path
           class="st21"
           d="m 63.512,77.118 c 0,0 -4.666,-7.159 2.053,-13.687 3.546,-3.44 8.919,-1.529 9.54,-0.91 2.644,2.622 0.982,8.156 -1.398,11.288 -1.345,1.764 -5.259,4.51 -10.195,3.309 z"
           id="path167"
           style="stroke-width:6.35045" />
        <linearGradient
           id="SVGID_13_"
           gradientUnits="userSpaceOnUse"
           x1="48.7383"
           y1="14.373"
           x2="43.199299"
           y2="11.3027"
           gradientTransform="matrix(6.3466375,0.22163063,-0.22163063,6.3466375,5328.4271,2509.6976)">
          <stop
             offset="0"
             style="stop-color:#F9C21B"
             id="stop169" />
          <stop
             offset="0.1479"
             style="stop-color:#F3BA1B"
             id="stop171" />
          <stop
             offset="0.3787"
             style="stop-color:#E3A41B"
             id="stop173" />
          <stop
             offset="0.6634"
             style="stop-color:#C9801C"
             id="stop175" />
          <stop
             offset="0.9884"
             style="stop-color:#A44E1C"
             id="stop177" />
          <stop
             offset="1"
             style="stop-color:#A34C1C"
             id="stop179" />
        </linearGradient>
        <path
           class="st22"
           d="m 66.187,76.674 c 0,0 -3.224,-4.949 1.422,-9.459 2.446,-2.376 6.161,-1.056 6.592,-0.63 1.826,1.812 0.676,5.637 -0.968,7.8 -0.929,1.223 -3.635,3.119 -7.046,2.289 z"
           id="path182"
           style="fill:url(#SVGID_13_);stroke-width:6.35045" />
        <path
           d="m 72.623,71.393 c -0.072,1.978 -1.746,3.522 -3.738,3.454 -1.996,-0.069 -3.558,-1.726 -3.487,-3.704 0.071,-1.977 1.744,-3.521 3.741,-3.453 1.992,0.069 3.553,1.727 3.484,3.703 z"
           id="path184"
           style="stroke-width:6.35045" />
      </g>
      <circle
         class="st24"
         cx="66.724998"
         cy="70.287003"
         r="1.136"
         id="circle188"
         style="stroke-width:6.35045" />
      <linearGradient
         id="SVGID_14_"
         gradientUnits="userSpaceOnUse"
         x1="206.2113"
         y1="130.1391"
         x2="169.42979"
         y2="47.526402"
         gradientTransform="matrix(6.3504478,0,0,6.3504478,5172.2651,2146.9588)">
        <stop
           offset="0"
           style="stop-color:#409EC3"
           id="stop190" />
        <stop
           offset="0.62"
           style="stop-color:#2061BD"
           id="stop192" />
      </linearGradient>
      <path
         class="st23"
         d="M 228.505,65.01 C 210.784,38.034 196.744,31.179 196.744,31.179 c 0,0 0.645,19.65 10.484,29.128 1.124,1.083 -11.774,-8.432 -11.774,-8.432 0,0 -2.758,9.076 3.562,19.51 -1.836,-2.439 -3.051,-3.363 -3.051,-3.363 0,0 -11.908,5.491 -15.423,13.109 -1.815,-3.426 -3.176,-5.444 -3.176,-5.444 0,0 -8.236,16.437 -7.201,35.495 1.684,30.988 -5.803,42.404 -5.803,42.404 0,0 20.057,-7.695 29.676,-32.468 3.974,10.533 -0.121,21.619 -0.121,21.619 0,0 16.206,-12.109 19.691,-34.18 3.863,6.23 2.727,18.664 2.727,18.664 0,0 10.344,-14.402 10.596,-30.086 4.794,3.343 5.235,16.399 5.235,16.399 0,0 15.336,-19.606 -3.661,-48.524 z"
         id="path195"
         style="fill:url(#SVGID_14_);stroke-width:6.35045" />
      <linearGradient
         id="SVGID_15_"
         gradientUnits="userSpaceOnUse"
         x1="176.7603"
         y1="103.061"
         x2="150.40691"
         y2="21.9536"
         gradientTransform="matrix(6.3504478,0,0,6.3504478,5172.2651,2146.9588)">
        <stop
           offset="0"
           style="stop-color:#14B2DA"
           id="stop197" />
        <stop
           offset="0.4028"
           style="stop-color:#297CCC"
           id="stop199" />
        <stop
           offset="0.5077"
           style="stop-color:#256FC5"
           id="stop201" />
        <stop
           offset="0.6492"
           style="stop-color:#2164BF"
           id="stop203" />
        <stop
           offset="0.8162"
           style="stop-color:#2061BD"
           id="stop205" />
        <stop
           offset="0.9835"
           style="stop-color:#2061BD"
           id="stop207" />
      </linearGradient>
      <path
         class="st25"
         d="m 211.282,46.158 c -4.631,-8.63 -12.803,-14.13 -19.986,-18.582 -17.909,-11.105 -29.427,-12.665 -29.427,-12.665 0,0 -16.528,3.074 -13.689,7.672 0.146,0.236 0.487,0.535 0.968,0.877 -14.498,-6.678 -22.722,8.677 -22.722,8.677 -8.284,-0.503 -18.371,3.575 -21.312,14.499 -0.305,1.134 3.711,0.496 5.777,0.945 12.079,2.626 23.45,8.32 28.675,11.134 12.154,6.548 19.365,17.451 23.528,25.629 5.037,9.894 7.094,27.304 7.094,27.304 0,0 13.253,-18.205 10.086,-27.552 5.249,3.26 6.285,14.891 6.285,14.891 0,0 8.835,-13.838 6.223,-25.891 6.815,4.153 7.042,12.601 7.042,12.601 0,0 6.939,-9.631 3.803,-25.427 6.858,5.453 8.293,12.517 8.293,12.517 0,0 5.606,-14.993 -0.638,-26.629 z"
         id="path210"
         style="fill:url(#SVGID_15_);stroke-width:6.35045" />
    </g>
    <rect
       style="fill:none;stroke:#000000;stroke-width:0.999998;stroke-miterlimit:4;stroke-dasharray:none"
       id="rect1698"
       width="10"
       height="10"
       x="151.51816"
       y="27.697521" />
    <rect
       style="fill:none;stroke:#000000;stroke-width:0.999998;stroke-miterlimit:4;stroke-dasharray:none"
       id="rect1802"
       width="10"
       height="10"
       x="137.81404"
       y="27.697521" />
    <rect
       style="fill:none;stroke:#000000;stroke-width:0.999998;stroke-miterlimit:4;stroke-dasharray:none"
       id="rect1804"
       width="10"
       height="10"
       x="124.10986"
       y="27.697521" />
    <text
       xml:space="preserve"
       style="font-style:normal;font-weight:normal;font-size:10.5833px;line-height:1.25;font-family:sans-serif;letter-spacing:0px;word-spacing:0px;fill:#000000;fill-opacity:1;stroke:none;stroke-width:0.264583"
       x="31.611143"
       y="36.114376"
       id="text3920"><tspan
         sodipodi:role="line"
         id="tspan3918"
         style="stroke-width:0.264583"
         x="31.611143"
         y="36.114376">Calendar App</tspan></text>
    <g
       id="g36105">
      <rect
         style="fill:#ffffff;stroke:#000000;stroke-width:0.999999;stroke-miterlimit:4;stroke-dasharray:none"
         id="rect9076"
         width="110"
         height="80"
         x="34.114761"
         y="56.488247" />
      <text
         xml:space="preserve"
         style="font-style:normal;font-weight:normal;font-size:10.5833px;line-height:1.25;font-family:sans-serif;letter-spacing:0px;word-spacing:0px;fill:#000000;fill-opacity:1;stroke:none;stroke-width:0.264583"
         x="40.134579"
         y="72.001572"
         id="text10260"><tspan
           sodipodi:role="line"
           style="stroke-width:0.264583"
           x="40.134579"
           y="72.001572"
           id="tspan11314">2022-02-22 20:22</tspan><tspan
           sodipodi:role="line"
           style="stroke-width:0.264583"
           x="40.134579"
           y="85.230698"
           id="tspan11324" /><tspan
           sodipodi:role="line"
           style="stroke-width:0.264583"
           x="40.134579"
           y="98.459824"
           id="tspan11318">SUMMARY</tspan><tspan
           sodipodi:role="line"
           style="stroke-width:0.264583"
           x="40.134579"
           y="111.68894"
           id="tspan11322">LOCATION</tspan><tspan
           sodipodi:role="line"
           style="stroke-width:0.264583"
           x="40.134579"
           y="124.91807"
           id="tspan11320">DESCRIPTION</tspan></text>
    </g>
    <rect
       style="fill:none;stroke:#000000;stroke-width:1;stroke-miterlimit:4;stroke-dasharray:none"
       id="rect12102"
       width="150"
       height="120"
       x="234.85054"
       y="25.051685" />
    <path
       id="path12104"
       style="fill:none;stroke:#000000"
       d="m 234.85055,40.926701 h 150"
       sodipodi:nodetypes="cc" />
    <text
       xml:space="preserve"
       style="font-style:normal;font-weight:normal;font-size:10.5833px;line-height:1.25;font-family:sans-serif;letter-spacing:0px;word-spacing:0px;fill:#000000;fill-opacity:1;stroke:none;stroke-width:0.264583"
       x="251.61115"
       y="36.114376"
       id="text12324"><tspan
         sodipodi:role="line"
         id="tspan12322"
         style="stroke-width:0.264583"
         x="251.61115"
         y="36.114376">icalcrypt_proxy</tspan></text>
    <rect
       style="fill:#ffffff;stroke:#000000;stroke-width:0.999999;stroke-miterlimit:4;stroke-dasharray:none"
       id="rect12326"
       width="110"
       height="80"
       x="254.11476"
       y="56.488247" />
    <text
       xml:space="preserve"
       style="font-style:normal;font-weight:normal;font-size:10.5833px;line-height:1.25;font-family:sans-serif;letter-spacing:0px;word-spacing:0px;fill:#000000;fill-opacity:1;stroke:none;stroke-width:0.264583"
       x="260.13458"
       y="72.001572"
       id="text12338"><tspan
         sodipodi:role="line"
         style="stroke-width:0.264583"
         x="260.13458"
         y="72.001572"
         id="tspan12328">2022-02-22 20:22</tspan><tspan
         sodipodi:role="line"
         style="stroke-width:0.264583"
         x="260.13458"
         y="85.230698"
         id="tspan12330" /><tspan
         sodipodi:role="line"
         style="stroke-width:0.264583"
         x="260.13458"
         y="98.459824"
         id="tspan12332">SUMMARY</tspan><tspan
         sodipodi:role="line"
         style="stroke-width:0.264583"
         x="260.13458"
         y="111.68894"
         id="tspan12334">LOCATION</tspan><tspan
         sodipodi:role="line"
         style="stroke-width:0.264583"
         x="260.13458"
         y="124.91807"
         id="tspan12336">DESCRIPTION</tspan></text>
    <path
       d="m 591.59896,27.669808 c -0.31998,0 -0.51579,-0.133722 -0.74026,-0.291324 -0.3152,-0.214912 -0.69249,-0.472806 -1.55213,-0.472806 -1.45663,0 -2.48343,2.08703 -3.15204,4.269576 -2.25896,0.415497 -3.72513,1.088886 -3.72513,1.843464 0,0.682941 1.19395,1.294245 3.08517,1.714516 -0.0191,0.191032 -0.0287,0.382066 -0.0287,0.577874 0,0.811888 0.15761,1.585568 0.44416,2.292389 h -2.86072 c -0.35341,0 -0.63995,0.286549 -0.63995,0.639958 0,0.08119 0.0143,0.162379 0.0478,0.238791 l 1.85302,4.627762 c -2.08226,1.552139 -3.42903,4.035562 -3.42903,6.829411 0,0.783233 0.63518,1.418417 1.41841,1.418417 h 18.55881 c 0.78323,0 1.41841,-0.635184 1.41841,-1.418417 0,-2.793849 -1.34678,-5.272496 -3.42425,-6.829411 l 1.84823,-4.627762 c 0.0287,-0.07641 0.0478,-0.157601 0.0478,-0.238791 0,-0.353409 -0.28654,-0.639958 -0.63996,-0.639958 h -2.86071 c 0.28655,-0.706821 0.44415,-1.480501 0.44415,-2.292389 0,-0.195808 -0.01,-0.386842 -0.0286,-0.577874 1.89122,-0.420271 3.08517,-1.031575 3.08517,-1.714516 0,-0.754578 -1.46617,-1.427967 -3.72513,-1.843464 -0.66861,-2.182546 -1.69541,-4.269576 -3.15203,-4.269576 -0.85965,0 -1.23694,0.257894 -1.55214,0.472806 -0.22924,0.157602 -0.42028,0.291324 -0.74025,0.291324 z m 2.67445,9.933689 h -0.5922 c -0.78801,0 -1.48528,-0.506237 -1.73362,-1.251264 -0.10984,-0.334306 -0.58265,-0.334306 -0.69249,0 -0.24835,0.745027 -0.95039,1.251264 -1.73362,1.251264 h -0.59698 c -1.05545,0 -1.91033,-0.85487 -1.91033,-1.910324 v -0.687717 c 1.34679,0.195808 2.91325,0.305652 4.58479,0.305652 1.67153,0 3.238,-0.109844 4.58478,-0.305652 v 0.687717 c 0,1.055454 -0.85488,1.910324 -1.91033,1.910324 z m -4.20271,4.58478 0.76412,1.528258 -1.52825,6.11304 -2.2924,-9.169559 z m 6.11304,-1.528261 -2.29239,9.169559 -1.52826,-6.11304 0.76412,-1.528258 z"
       id="path9"
       style="stroke-width:0.264583" />
    <rect
       style="fill:none;stroke:#000000;stroke-width:1;stroke-miterlimit:4;stroke-dasharray:none"
       id="rect12366"
       width="150"
       height="120"
       x="454.85056"
       y="25.051685" />
    <path
       id="path12368"
       style="fill:none;stroke:#000000"
       d="m 454.85052,40.926701 h 150"
       sodipodi:nodetypes="cc" />
    <text
       xml:space="preserve"
       style="font-style:normal;font-weight:normal;font-size:10.5833px;line-height:1.25;font-family:sans-serif;letter-spacing:0px;word-spacing:0px;fill:#000000;fill-opacity:1;stroke:none;stroke-width:0.264583"
       x="471.61115"
       y="36.114376"
       id="text12588"><tspan
         sodipodi:role="line"
         id="tspan12586"
         style="stroke-width:0.264583"
         x="471.61115"
         y="36.114376">Some Server</tspan></text>
    <g
       id="g36123">
      <rect
         style="fill:#ffffff;stroke:#000000;stroke-width:0.999999;stroke-miterlimit:4;stroke-dasharray:none"
         id="rect12590"
         width="110"
         height="80"
         x="474.11478"
         y="56.488247" />
      <text
         xml:space="preserve"
         style="font-style:normal;font-weight:normal;font-size:10.5833px;line-height:1.25;font-family:sans-serif;letter-spacing:0px;word-spacing:0px;fill:#000000;fill-opacity:1;stroke:none;stroke-width:0.264583"
         x="480.13458"
         y="72.001572"
         id="text12602"><tspan
           sodipodi:role="line"
           style="stroke-width:0.264583"
           x="480.13458"
           y="72.001572"
           id="tspan12592">2022-02-22 20:22</tspan><tspan
           sodipodi:role="line"
           style="stroke-width:0.264583"
           x="480.13458"
           y="85.230698"
           id="tspan12594" /><tspan
           sodipodi:role="line"
           style="stroke-width:0.264583"
           x="480.13458"
           y="98.459824"
           id="tspan12596">WzubL510P</tspan><tspan
           sodipodi:role="line"
           style="stroke-width:0.264583"
           x="480.13458"
           y="111.68894"
           id="tspan12598">mBjIMDgjC2S</tspan><tspan
           sodipodi:role="line"
           style="stroke-width:0.264583"
           x="480.13458"
           y="124.91807"
           id="tspan12600">0gKpEEF7vJckFvJ</tspan></text>
    </g>
    <path
       style="fill:none;stroke:#000000;stroke-width:1;stroke-linecap:butt;stroke-linejoin:miter;stroke-miterlimit:4;stroke-dasharray:none;stroke-opacity:1;marker-start:url(#Arrow1Mstart);marker-end:url(#Arrow1Mend)"
       d="m 168.71863,91.906058 h 61.28828"
       id="path19817" />
    <text
       xml:space="preserve"
       style="font-style:normal;font-weight:normal;font-size:10.5833px;line-height:1.25;font-family:sans-serif;letter-spacing:0px;word-spacing:0px;fill:#000000;fill-opacity:1;stroke:none;stroke-width:0.264583"
       x="177.75577"
       y="86.911057"
       id="text21640"><tspan
         sodipodi:role="line"
         id="tspan21638"
         style="stroke-width:0.264583"
         x="177.75577"
         y="86.911057">WebDAV</tspan></text>
    <path
       style="fill:none;stroke:#000000;stroke-width:1;stroke-linecap:butt;stroke-linejoin:miter;stroke-miterlimit:4;stroke-dasharray:none;stroke-opacity:1;marker-start:url(#Arrow1Mstart);marker-end:url(#Arrow1Mend)"
       d="m 389.0189,91.906058 h 61.28828"
       id="path22058" />
    <text
       xml:space="preserve"
       style="font-style:normal;font-weight:normal;font-size:10.5833px;line-height:1.25;font-family:sans-serif;letter-spacing:0px;word-spacing:0px;fill:#000000;fill-opacity:1;stroke:none;stroke-width:0.264583"
       x="398.05603"
       y="86.911057"
       id="text22062"><tspan
         sodipodi:role="line"
         id="tspan22060"
         style="stroke-width:0.264583"
         x="398.05603"
         y="86.911057">WebDAV</tspan></text>
    <g
       id="g36977"
       mask="url(#mask867)">
      <rect
         style="fill:#ffffff;stroke:#000000;stroke-width:0.999999;stroke-miterlimit:4;stroke-dasharray:none"
         id="rect36125"
         width="110"
         height="80"
         x="254.11476"
         y="56.488247" />
      <text
         xml:space="preserve"
         style="font-style:normal;font-weight:normal;font-size:10.5833px;line-height:1.25;font-family:sans-serif;letter-spacing:0px;word-spacing:0px;fill:#000000;fill-opacity:1;stroke:none;stroke-width:0.264583"
         x="260.13458"
         y="72.001572"
         id="text36137"><tspan
           sodipodi:role="line"
           style="stroke-width:0.264583"
           x="260.13458"
           y="72.001572"
           id="tspan36127">2022-02-22 20:22</tspan><tspan
           sodipodi:role="line"
           style="stroke-width:0.264583"
           x="260.13458"
           y="85.230698"
           id="tspan36129" /><tspan
           sodipodi:role="line"
           style="stroke-width:0.264583"
           x="260.13458"
           y="98.459824"
           id="tspan36131">WzubL510P</tspan><tspan
           sodipodi:role="line"
           style="stroke-width:0.264583"
           x="260.13458"
           y="111.68894"
           id="tspan36133">mBjIMDgjC2S</tspan><tspan
           sodipodi:role="line"
           style="stroke-width:0.264583"
           x="260.13458"
           y="124.91807"
           id="tspan36135">0gKpEEF7vJckFvJ</tspan></text>
    </g>
    <path
       style="fill:none;stroke:#000000;stroke-width:1;stroke-linecap:butt;stroke-linejoin:miter;stroke-miterlimit:4;stroke-dasharray:1, 1;stroke-dashoffset:0;stroke-opacity:1"
       d="M 259.40643,141.77992 358.82306,51.196581"
       id="path37029"
       sodipodi:nodetypes="cc" />
  </g>
  <style
     type="text/css"
     id="style18">
	.st0{fill:#363959;}
	.st1{fill:url(#SVGID_1_);}
	.st2{fill:#FBFBFB;}
	.st3{fill:#999999;}
	.st4{fill:#F8F8F8;}
	.st5{fill:url(#SVGID_2_);}
	.st6{fill:url(#SVGID_3_);}
	.st7{fill:url(#SVGID_4_);}
	.st8{fill:#3F6499;}
	.st9{fill:url(#SVGID_5_);}
	.st10{fill:url(#SVGID_6_);}
	.st11{fill:url(#SVGID_7_);}
	.st12{fill:url(#SVGID_8_);}
	.st13{filter:url(#Adobe_OpacityMaskFilter);}
	.st14{fill:url(#SVGID_10_);}
	.st15{mask:url(#SVGID_9_);}
	.st16{opacity:0.6;}
	.st17{opacity:0.2;}
	.st18{fill:url(#SVGID_11_);}
	.st19{fill:url(#SVGID_12_);}
	.st20{opacity:0.1;fill:#F2F2F2;}
	.st21{fill:#2F4282;}
	.st22{fill:url(#SVGID_13_);}
	.st23{fill:url(#SVGID_14_);}
	.st24{fill:#FFFFFF;}
	.st25{fill:url(#SVGID_15_);}
	.st26{fill:url(#SVGID_16_);}
	.st27{fill:url(#SVGID_17_);}
	.st28{fill:url(#SVGID_18_);}
	.st29{fill:url(#SVGID_19_);}
	.st30{fill:url(#SVGID_20_);}
	.st31{fill:url(#SVGID_21_);}
	.st32{fill:url(#SVGID_22_);}
	.st33{fill:url(#SVGID_23_);}
	.st34{fill:url(#SVGID_24_);}
	.st35{filter:url(#Adobe_OpacityMaskFilter_1_);}
	.st36{fill:url(#SVGID_26_);}
	.st37{mask:url(#SVGID_25_);}
	.st38{fill:url(#SVGID_27_);}
	.st39{fill:url(#SVGID_28_);}
	.st40{fill:url(#SVGID_29_);}
	.st41{fill:url(#SVGID_30_);}
	.st42{fill:url(#SVGID_31_);}
	.st43{fill:url(#SVGID_32_);}
	.st44{fill:url(#SVGID_33_);}
	.st45{fill:url(#SVGID_34_);}
	.st46{fill:url(#SVGID_35_);}
	.st47{fill:url(#SVGID_36_);}
	.st48{fill:url(#SVGID_37_);}
	.st49{fill:url(#SVGID_38_);}
	.st50{fill:url(#SVGID_39_);}
	.st51{fill:url(#SVGID_40_);}
	.st52{filter:url(#Adobe_OpacityMaskFilter_2_);}
	.st53{fill:url(#SVGID_42_);}
	.st54{mask:url(#SVGID_41_);}
	.st55{fill:url(#SVGID_43_);}
	.st56{fill:url(#SVGID_44_);}
	.st57{fill:url(#SVGID_45_);}
	.st58{fill:url(#SVGID_46_);}
	.st59{fill:url(#SVGID_47_);}
	.st60{fill:url(#SVGID_48_);}
</style>
</svg>
